<svg id="レイヤー_6" data-name="レイヤー 6" xmlns="http://www.w3.org/2000/svg" viewBox="0 0 1024 354.3"><defs><style>.cls-1{fill:#a5ef73;}</style></defs><title>glassGround</title><rect class="cls-1" y="189.3" width="1024" height="165"/><path class="cls-1" d="M449.38,678.39c-105.85,39.74-186.9,130.2-213.56,241.79A175.7,175.7,0,0,1,449.38,678.39Z" transform="translate(0 -669.7)"/><path class="cls-1" d="M111,743c51.36,23.26,90.69,76.2,103.63,141.5a120.35,120.35,0,0,0,8.11-43.83c0-56.75-38.15-102.76-85.2-102.76A71.73,71.73,0,0,0,111,743Z" transform="translate(0 -669.7)"/><path class="cls-1" d="M903,739.12A213.84,213.84,0,0,0,770.46,889.18,109,109,0,0,1,903,739.12Z" transform="translate(0 -669.7)"/><path class="cls-1" d="M693,779.22c31.88,14.43,56.28,47.29,64.31,87.82a74.64,74.64,0,0,0,5-27.2c0-35.22-23.68-63.78-52.88-63.78A44.6,44.6,0,0,0,693,779.22Z" transform="translate(0 -669.7)"/></svg>