<svg id="goal" xmlns="http://www.w3.org/2000/svg" viewBox="0 0 824.06 945"><defs><style>.cls-1,.cls-2{fill:#fff;}.cls-1{stroke:#fff;stroke-miterlimit:10;}</style></defs><title>goal</title><path class="cls-1" d="M363.85,217.05a8.2,8.2,0,0,0-1.07,4.43,6.72,6.72,0,0,0,2.76,5.1,11.7,11.7,0,0,0,7,1.86,24.61,24.61,0,0,0,7.77-1.46,14,14,0,0,0,9-13.93,16.67,16.67,0,0,0-12.62-15.31,29,29,0,0,0-24,4.62,28.69,28.69,0,0,0-12,21.81,35.07,35.07,0,0,0,9.58,25.24c6.72,7.42,17.06,12.5,28.28,14.29a60.11,60.11,0,0,0,17.42.5,63.71,63.71,0,0,0,16.86-5.32,124,124,0,0,0,29.18-19.51c8.82-7.82,17-16.72,23.24-27A51.4,51.4,0,0,0,472,195.52a24.22,24.22,0,0,0,0-9.41,33.44,33.44,0,0,0-3.1-9,15.34,15.34,0,0,0-3.24-4.22,9,9,0,0,0-6.11-2.41,9.15,9.15,0,0,0-6,2.53,12.9,12.9,0,0,0-3.12,4.49c-2.85,6.43-.9,13.74,2.69,19.16C460,208.09,471.4,216.3,482,224.62c5.36,4.15,10.68,8.35,15.81,12.77s10.1,8.92,13.93,14.15,6.84,11,7.7,17a15,15,0,0,1-1,8.57,7.35,7.35,0,0,1-13.16,0,15.14,15.14,0,0,1-1-8.57c.86-6,3.85-11.87,7.7-17s8.79-9.72,13.94-14.15,10.46-8.62,15.8-12.78c10.58-8.31,21.94-16.52,28.9-27.9,3.58-5.42,5.53-12.73,2.7-19.16a13.38,13.38,0,0,0-3.14-4.49,9.15,9.15,0,0,0-6-2.53,9,9,0,0,0-6.11,2.41,15.53,15.53,0,0,0-3.24,4.22,33.06,33.06,0,0,0-3.09,9,24.22,24.22,0,0,0,0,9.41,51.67,51.67,0,0,0,6.84,16.82,119.54,119.54,0,0,0,23.25,27,123.17,123.17,0,0,0,29.19,19.51,63.12,63.12,0,0,0,16.84,5.32c6.09.87,11.8.31,17.43-.5,11.21-1.79,21.55-6.87,28.27-14.29a35.11,35.11,0,0,0,9.58-25.24,28.68,28.68,0,0,0-12-21.82,29,29,0,0,0-24-4.61A16.86,16.86,0,0,0,637.6,204a16.55,16.55,0,0,0-3.23,9.05,14,14,0,0,0,9,13.92,24.33,24.33,0,0,0,7.77,1.46,11.74,11.74,0,0,0,7-1.86,6.77,6.77,0,0,0,2.76-5.1,8.12,8.12,0,0,0-1.07-4.43c-2.06-3.54-5.21-3.94-6.3-3.79s-1.29.43-1.24.63.2.36,1.17.5a5.75,5.75,0,0,1,4.41,3.39c.94,1.87,1.19,5.11-1.34,6.92s-7.49,1.42-11.74-.17a11,11,0,0,1-6.9-11.22A13.54,13.54,0,0,1,647.91,201a24.8,24.8,0,0,1,20.46,4,25.21,25.21,0,0,1,10.47,19.18,31.65,31.65,0,0,1-8.63,22.68c-6.05,6.66-15.31,11.28-25.66,13a56.79,56.79,0,0,1-15.88.5,58.92,58.92,0,0,1-15.54-4.91A120.46,120.46,0,0,1,585,236.65c-8.56-7.6-16.49-16.26-22.47-26.09A48.65,48.65,0,0,1,556.13,195a20.79,20.79,0,0,1-.08-8,31,31,0,0,1,2.7-8c1.23-2.41,3.35-4.54,5.22-4.46,1.89-.08,4.08,2,5.06,4.41a14.07,14.07,0,0,1,.89,8,22.66,22.66,0,0,1-3.26,7.93c-6.3,10.45-17.25,18.52-27.88,26.84-5.36,4.18-10.76,8.42-16,12.92s-10.43,9.21-14.55,14.82-7.4,11.82-8.4,18.73a18.55,18.55,0,0,0,1.35,10.62,11.37,11.37,0,0,0,4.12,4.62,12.56,12.56,0,0,0,6.52,1.78,12.39,12.39,0,0,0,6.51-1.78,11.42,11.42,0,0,0,4.11-4.62,18.63,18.63,0,0,0,1.36-10.62c-1-6.91-4.3-13.17-8.41-18.73S506,239,500.85,234.55s-10.62-8.74-16-12.9c-10.62-8.34-21.57-16.41-27.86-26.86a22.52,22.52,0,0,1-3.28-7.93,14.07,14.07,0,0,1,.89-8c1-2.4,3.18-4.49,5.06-4.41,1.87-.08,4,2,5.21,4.46a30.36,30.36,0,0,1,2.71,8,21,21,0,0,1-.07,8.06,48.45,48.45,0,0,1-6.43,15.58c-6,9.83-13.9,18.49-22.47,26.09a120,120,0,0,1-28.11,18.78A58.69,58.69,0,0,1,395,260.34a56.79,56.79,0,0,1-15.88-.5c-10.36-1.68-19.6-6.3-25.66-13a31.69,31.69,0,0,1-8.63-22.68A25.2,25.2,0,0,1,355.29,205a24.77,24.77,0,0,1,20.45-4,13.56,13.56,0,0,1,10.06,12.34,11,11,0,0,1-6.91,11.21c-4.25,1.59-9.27,2-11.74.17s-2.27-5-1.32-6.92a5.77,5.77,0,0,1,4.4-3.39c1-.14,1.13-.24,1.17-.5s0-.48-1.24-.63S365.91,213.51,363.85,217.05Z" transform="translate(-98.97 -79)"/><path class="cls-1" d="M622.18,276.76a5.55,5.55,0,0,0-2.32-2.54,14.86,14.86,0,0,0-5.27-1.58c-6.66-.71-12.64.25-18.36,1.3-1.58.31-3.07.71-4.56,1.09a101.14,101.14,0,0,1-12-6,131,131,0,0,1-23.23-17.13,175.34,175.34,0,0,1-20.13-23.07c-.9-1.18-1.71-2.29-2.42-3.31-.59-.84-1.11-1.65-1.61-2.36-3.25-4.71-7.18-9.88-15.48-27.19a46.65,46.65,0,0,1-3.53-9.17,119.9,119.9,0,0,0,5.91-16.07,56.93,56.93,0,0,0,2.39-15.64,20.67,20.67,0,0,0-1.8-8.55,10.28,10.28,0,0,0-3.31-4,10.16,10.16,0,0,0-11.46,0,10.31,10.31,0,0,0-3.32,4,20.5,20.5,0,0,0-1.79,8.55,56.93,56.93,0,0,0,2.38,15.64,124.18,124.18,0,0,0,5.89,16.07,44.27,44.27,0,0,1-3.53,9.17c-8.27,17.31-12.21,22.48-15.46,27.19-.25.37-.52.78-.83,1.21-.69,1-1.49,2.14-2.36,3.38h0A177.82,177.82,0,0,1,465,251.89,131.32,131.32,0,0,1,441.78,269a102.06,102.06,0,0,1-12,6c-1.49-.38-3-.78-4.55-1.09-5.73-1.05-11.71-2-18.37-1.3a14.81,14.81,0,0,0-5.26,1.58,5.44,5.44,0,0,0-2.32,2.54,4.32,4.32,0,0,0,.06,3.47c1.14,2.32,3.47,3.13,5.17,3.56a21.58,21.58,0,0,0,5.33.5,59.82,59.82,0,0,0,18.76-4.12c.56-.22,1.06-.5,1.61-.71a137.64,137.64,0,0,1,22.64,8,111.58,111.58,0,0,1,29.24,18.76c2.66,2.76,11.43,11.28,18.77,22.43a109.06,109.06,0,0,1,7.31,12.94c-.78,1.74-1.52,3.5-2.2,5.33a49.56,49.56,0,0,0-3,12.63,19.59,19.59,0,0,0,.53,7.1,8.59,8.59,0,0,0,2.23,3.77,7.59,7.59,0,0,0,10.09,0,8.59,8.59,0,0,0,2.23-3.77,19.16,19.16,0,0,0,.53-7.1,50,50,0,0,0-3-12.63c-.69-1.83-1.43-3.59-2.2-5.33a109.06,109.06,0,0,1,7.31-12.94c7.34-11.15,16.1-19.67,18.76-22.43a111.78,111.78,0,0,1,29.21-18.76,139.36,139.36,0,0,1,22.67-8c.56.21,1,.49,1.61.71a59.82,59.82,0,0,0,18.77,4.12,21.38,21.38,0,0,0,5.32-.5c1.71-.43,4-1.24,5.18-3.56A4.28,4.28,0,0,0,622.18,276.76Zm-212.46,3.41a16.4,16.4,0,0,1-4-.34,3.22,3.22,0,0,1-2.08-1.12c-.09-.46-.15-.62.56-1a9.16,9.16,0,0,1,3.31-.93,54.23,54.23,0,0,1,15.15,1A49.22,49.22,0,0,1,409.72,280.17Zm97.16-110.44a52.69,52.69,0,0,1-2.3-14.59,16.85,16.85,0,0,1,1.37-7c1-2.1,2.63-3.37,4.77-3.34s3.74,1.24,4.77,3.34a16.68,16.68,0,0,1,1.36,7,51.59,51.59,0,0,1-2.29,14.59c-1.09,3.84-2.45,7.49-3.84,11.05A108,108,0,0,1,506.88,169.73Zm7,190.12a15.7,15.7,0,0,1-.37,5.73,4.31,4.31,0,0,1-1.11,2,2.15,2.15,0,0,1-1.64.62,2.12,2.12,0,0,1-1.64-.62,4.32,4.32,0,0,1-1.12-2,15.07,15.07,0,0,1-.37-5.73,46.91,46.91,0,0,1,2.88-11.64l.25-.62.24.62A46.48,46.48,0,0,1,513.84,359.85Zm52.62-76.06c-14.65,6.32-26,16.07-30,19.82a180.94,180.94,0,0,0-19.85,22.92,88.67,88.67,0,0,0-5.85,9.76,93.61,93.61,0,0,0-5.86-9.76A180.94,180.94,0,0,0,485,303.61c-4.06-3.75-15.39-13.5-30-19.82a168,168,0,0,0-18.61-7q4.23-2,8.05-4.3A125.51,125.51,0,0,0,468.32,254,198.85,198.85,0,0,0,488.76,230c.93-1.27,1.73-2.42,2.41-3.35q.42-.56.75-1c3.75-5.27,9.07-14.34,16.75-29.11.68-1.34,1.37-2.76,2.05-4.15.68,1.39,1.39,2.81,2,4.15,7.68,14.77,13,23.84,16.76,29.11l1.54,2.14c.72,1,1.52,2.07,2.45,3.31a191.3,191.3,0,0,0,19.6,23A125.51,125.51,0,0,0,577,272.49c2.54,1.51,5.24,2.94,8.06,4.3A168.14,168.14,0,0,0,566.46,283.79Zm51.32-5.08a3.18,3.18,0,0,1-2.07,1.12,16.6,16.6,0,0,1-4,.34,48.94,48.94,0,0,1-12.88-2.39,53.85,53.85,0,0,1,15.11-1,9.16,9.16,0,0,1,3.31.93C617.94,278.09,617.87,278.25,617.78,278.71Z" transform="translate(-98.97 -79)"/><path class="cls-1" d="M230.78,347.93A78.71,78.71,0,0,1,237,335.51a62.11,62.11,0,0,1,17.27-17.58c16.17-11.46,41.17-18.78,67.87-23.21,6.63-1.13,13.47-2,19.94-3.85a65.69,65.69,0,0,0,18-7.92A38.88,38.88,0,0,0,373,269.54,30.7,30.7,0,0,0,376.79,253c-.59-10.88-6.84-19.26-13.37-22.68a17.93,17.93,0,0,0-9.12-2.23,14.72,14.72,0,0,0-5.75,1.27c-1.72.83-1.7,1.12-1.52,1.56s.38.57,2.06.27a17.64,17.64,0,0,1,12.64,2.07c5.32,3.07,10.65,10.42,11.11,19.91a26.91,26.91,0,0,1-3.41,14.4,34.81,34.81,0,0,1-11.56,12A61.16,61.16,0,0,1,341,287c-6.16,1.81-12.72,2.62-19.53,3.78-26.95,4.49-52.57,11.69-69.52,23.89A60.46,60.46,0,0,0,234,333.79a40.87,40.87,0,0,0-5.1,13.64c-.24,1.82-.06,2,.42,2.09S230.08,349.58,230.78,347.93Z" transform="translate(-98.97 -79)"/><path class="cls-1" d="M198.86,388.77a78.15,78.15,0,0,1,4.85-13,62,62,0,0,1,15.34-19.29c14.89-13.08,39-23,65.09-30.17,6.47-1.81,13.19-3.35,19.42-5.89a65.69,65.69,0,0,0,17.1-9.76A38.63,38.63,0,0,0,332.07,296a30.43,30.43,0,0,0,2.1-16.86c-1.73-10.76-8.81-18.44-15.67-21.16a17.9,17.9,0,0,0-9.3-1.27,14.75,14.75,0,0,0-5.58,1.87c-1.63,1-1.58,1.28-1.35,1.71s.43.53,2.08.05a17.61,17.61,0,0,1,12.77.74c5.62,2.5,11.7,9.25,13.14,18.64a27,27,0,0,1-1.89,14.67,34.83,34.83,0,0,1-10.24,13.18,61.3,61.3,0,0,1-16,9.17c-5.94,2.45-12.38,4-19,5.8-26.33,7.28-51.06,17.12-66.66,31a60.83,60.83,0,0,0-15.79,20.85,41.33,41.33,0,0,0-3.65,14.1c0,1.84.16,2,.64,2S198.33,390.48,198.86,388.77Z" transform="translate(-98.97 -79)"/><path class="cls-1" d="M177.71,431.89A79.71,79.71,0,0,1,181,418.42a62.15,62.15,0,0,1,12.94-21C207.18,382.7,230,370,255,359.8c6.22-2.56,12.7-4.89,18.6-8.16a65.48,65.48,0,0,0,15.81-11.7A38.74,38.74,0,0,0,299,324a30.4,30.4,0,0,0,.09-17c-3-10.48-10.93-17.27-18-19.16a18.07,18.07,0,0,0-9.41-.17,14.9,14.9,0,0,0-5.31,2.51c-1.5,1.2-1.41,1.47-1.14,1.86s.49.48,2.07-.19a17.61,17.61,0,0,1,12.78-.77c5.88,1.82,12.7,7.81,15.24,17a26.91,26.91,0,0,1-.14,14.8,34.92,34.92,0,0,1-8.61,14.28,61.93,61.93,0,0,1-14.84,11c-5.61,3.13-11.82,5.37-18.21,8-25.28,10.33-48.68,23-62.53,38.66a60.66,60.66,0,0,0-13.21,22.57,41.64,41.64,0,0,0-2,14.43c.18,1.83.39,1.94.89,1.95S177.39,433.66,177.71,431.89Z" transform="translate(-98.97 -79)"/><path class="cls-1" d="M800.44,347.93a77.81,77.81,0,0,0-6.18-12.42A62.19,62.19,0,0,0,777,317.93c-16.17-11.46-41.18-18.78-67.87-23.21-6.64-1.13-13.48-2-20-3.85a65.63,65.63,0,0,1-18-7.92,38.82,38.82,0,0,1-12.89-13.41A30.7,30.7,0,0,1,654.43,253c.59-10.88,6.84-19.26,13.37-22.68a17.93,17.93,0,0,1,9.12-2.23,14.67,14.67,0,0,1,5.75,1.27c1.72.83,1.71,1.12,1.53,1.56s-.38.57-2.07.27a17.65,17.65,0,0,0-12.64,2.07c-5.32,3.07-10.65,10.42-11.1,19.91a26.9,26.9,0,0,0,3.4,14.4,34.81,34.81,0,0,0,11.56,12,61.16,61.16,0,0,0,16.9,7.46c6.16,1.81,12.72,2.62,19.53,3.78,27,4.49,52.57,11.69,69.52,23.89a60.35,60.35,0,0,1,17.88,19.08,41.19,41.19,0,0,1,5.11,13.64c.23,1.82.05,2-.43,2.09S801.15,349.58,800.44,347.93Z" transform="translate(-98.97 -79)"/><path class="cls-1" d="M832.37,388.77a79.42,79.42,0,0,0-4.86-13,62.24,62.24,0,0,0-15.33-19.29c-14.89-13.08-39-23-65.1-30.17-6.46-1.81-13.19-3.35-19.42-5.89a65.63,65.63,0,0,1-17.09-9.76A38.65,38.65,0,0,1,699.15,296a30.61,30.61,0,0,1-2.1-16.86c1.74-10.76,8.82-18.44,15.67-21.16a17.94,17.94,0,0,1,9.31-1.27,14.69,14.69,0,0,1,5.57,1.87c1.63,1,1.59,1.28,1.36,1.71s-.44.53-2.08.05a17.64,17.64,0,0,0-12.78.74c-5.62,2.5-11.69,9.25-13.14,18.64a27,27,0,0,0,1.89,14.67,34.93,34.93,0,0,0,10.24,13.18,61.62,61.62,0,0,0,16,9.17c6,2.45,12.38,4,19,5.8,26.32,7.28,51.06,17.12,66.66,31a60.7,60.7,0,0,1,15.79,20.85,41.33,41.33,0,0,1,3.65,14.1c0,1.84-.15,2-.64,2S832.9,390.48,832.37,388.77Z" transform="translate(-98.97 -79)"/><path class="cls-1" d="M853.51,431.89a79.38,79.38,0,0,0-3.28-13.47,62.35,62.35,0,0,0-13-21C824,382.7,801.27,370,776.21,359.8c-6.22-2.56-12.71-4.89-18.6-8.16a65.54,65.54,0,0,1-15.82-11.7,38.63,38.63,0,0,1-9.6-15.94,30.49,30.49,0,0,1-.09-17c3-10.48,10.93-17.27,18-19.16a18.07,18.07,0,0,1,9.41-.17,14.81,14.81,0,0,1,5.31,2.51c1.5,1.2,1.42,1.47,1.15,1.86s-.49.48-2.09-.19a17.57,17.57,0,0,0-12.77-.77c-5.87,1.82-12.7,7.81-15.23,17a26.9,26.9,0,0,0,.13,14.8,34.83,34.83,0,0,0,8.62,14.28,62.07,62.07,0,0,0,14.83,11c5.61,3.13,11.83,5.37,18.21,8,25.29,10.33,48.69,23,62.53,38.66a60.39,60.39,0,0,1,13.21,22.57,41.06,41.06,0,0,1,2,14.43c-.17,1.83-.38,1.94-.88,1.95S853.83,433.66,853.51,431.89Z" transform="translate(-98.97 -79)"/><path class="cls-1" d="M862.6,417.21c-1.43-1.3-1.67-1.21-2-.87s-.41.59.46,2.05a19.22,19.22,0,0,1,2.48,12.69A24.49,24.49,0,0,1,853.15,448c-.06-.31-.09-.65-.18-1-.9-3.34-2.14-6.9-4.9-9.69a13.93,13.93,0,0,0-4.74-3.07,22,22,0,0,0-5.14-1.48,10.8,10.8,0,0,0-5.73.71,9.09,9.09,0,0,0-4.3,4c-3.53,6.85.15,15.33,6.75,17.63a13.9,13.9,0,0,0,4.77.83,33.2,33.2,0,0,0,4.4-.28,27.07,27.07,0,0,0,6.19-1.73c.19,1.24.37,2.51.53,3.81,1.42,13.38,1.58,26.66,1.83,39l.12,15.64V1000.9l-.12,15.64c0,2.11-.1,4.24-.13,6.41h4c.06-2.13.09-4.27.15-6.38.06-5.42.13-10.65.16-15.67V512.35c0-5.05-.1-10.28-.16-15.7-.31-12.39-.46-25.65-1.92-39.4-.21-1.73-.43-3.46-.71-5.2a27.13,27.13,0,0,0,9-9,26.54,26.54,0,0,0,3.84-11.64C867.58,424.05,864.52,419,862.6,417.21Zm-19.11,34.47a15.5,15.5,0,0,1-7.19-.37,8.31,8.31,0,0,1-4.83-4.83,8.84,8.84,0,0,1,.22-7.13c1.12-2.07,3.34-3,6-2.66a19.91,19.91,0,0,1,4.12,1.21,10.6,10.6,0,0,1,3.47,2.2c1.89,1.89,3,4.8,3.84,7.89.15.62.28,1.3.4,2A23.74,23.74,0,0,1,843.49,451.68Z" transform="translate(-98.97 -79)"/><polygon class="cls-1" points="748.24 943.95 748.24 814.19 748.24 771.67 748.24 399.75 747.28 399.75 747.28 771.67 747.28 814.19 747.28 943.95 748.24 943.95"/><path class="cls-1" d="M203.06,437.46a9.09,9.09,0,0,0-4.3-4,10.8,10.8,0,0,0-5.73-.71,22,22,0,0,0-5.14,1.48,13.53,13.53,0,0,0-4.71,3.07c-2.79,2.79-4,6.35-4.93,9.69-.09.34-.12.68-.18,1a24.34,24.34,0,0,1-10.38-16.88,19.08,19.08,0,0,1,2.45-12.69c.87-1.46.87-1.68.49-2.05s-.58-.43-2,.87c-1.92,1.77-5,6.84-4.3,14.22a26.54,26.54,0,0,0,3.84,11.64,27.13,27.13,0,0,0,9,9c-.28,1.74-.5,3.47-.71,5.2-1.46,13.75-1.64,27-1.89,39.4q-.14,8.13-.19,15.7V1000.9q0,7.53.19,15.67c0,2.11.09,4.25.12,6.38h4c0-2.17-.09-4.3-.13-6.41l-.12-15.64V512.35l.12-15.64c.25-12.33.41-25.61,1.83-39,.16-1.3.34-2.57.53-3.81a27.51,27.51,0,0,0,6.19,1.73,33.2,33.2,0,0,0,4.4.28,13.9,13.9,0,0,0,4.77-.83C202.91,452.79,206.59,444.31,203.06,437.46Zm-3.31,9a8.31,8.31,0,0,1-4.83,4.83,15.5,15.5,0,0,1-7.19.37,24.47,24.47,0,0,1-6-1.73c.13-.66.25-1.34.4-2,.81-3.09,1.95-6,3.87-7.89a10.16,10.16,0,0,1,3.44-2.2,20.46,20.46,0,0,1,4.12-1.21c2.7-.37,4.89.59,6,2.66A8.84,8.84,0,0,1,199.75,446.48Z" transform="translate(-98.97 -79)"/><polygon class="cls-1" points="86.03 943.95 86.03 814.19 86.03 771.67 86.03 399.75 85.04 399.75 85.04 771.67 85.04 814.19 85.04 943.95 86.03 943.95"/><path class="cls-2" d="M877.71,1024V491a366.71,366.71,0,1,0-733.42,0v533H99V491A412,412,0,1,1,923,491v533Z" transform="translate(-98.97 -79)"/></svg>