<svg xmlns="http://www.w3.org/2000/svg" viewBox="0 0 1024 1024"><defs><style>.cls-1{fill:none;}.cls-2{fill:#e6e6e6;}.cls-3{fill:#ccc;}.cls-4{fill:#fff;}</style></defs><title>neelde</title><g id="Back"><rect class="cls-1" width="1024" height="1024"/></g><g id="レイヤー_1" data-name="レイヤー 1"><polygon class="cls-2" points="804.73 394.91 981.4 1024 628.05 1024 804.73 394.91"/><polygon class="cls-3" points="627.73 1024 670.33 1024 847 394.91 825.71 319.1 627.73 1024"/><polygon class="cls-4" points="1024 1024 981.4 1024 826.05 470 826.02 319.1 1024 1024"/><polygon class="cls-2" points="490.87 394.91 667.53 1024 314.19 1024 490.87 394.91"/><polygon class="cls-3" points="313.87 1024 356.46 1024 533.13 394.91 511.85 319.1 313.87 1024"/><polygon class="cls-4" points="710.13 1024 667.53 1024 512.18 470 512.15 319.1 710.13 1024"/><polygon class="cls-2" points="177 394.91 353.67 1024 0.32 1024 177 394.91"/><polygon class="cls-3" points="0 1024 42.6 1024 219.27 394.91 197.98 319.1 0 1024"/><polygon class="cls-4" points="396.27 1024 353.67 1024 198.32 470 198.29 319.1 396.27 1024"/></g></svg>