<?xml version="1.0" encoding="utf-8"?>
<!-- Generator: Adobe Illustrator 21.1.0, SVG Export Plug-In . SVG Version: 6.00 Build 0)  -->
<svg version="1.1" xmlns="http://www.w3.org/2000/svg" xmlns:xlink="http://www.w3.org/1999/xlink" x="0px" y="0px"
	 viewBox="0 0 4096 2048" style="enable-background:new 0 0 4096 2048;" xml:space="preserve">
<style type="text/css">
	.st0{fill:#6BB9F0;}
	.st1{fill:#E4F1FE;}
	.st2{display:none;}
	.st3{display:inline;fill:#89C4F4;}
	.st4{display:inline;fill:#59ABE3;}
	.st5{display:inline;fill:#7DBC6F;}
	.st6{display:inline;}
	.st7{fill:#95A5A6;}
	.st8{fill:#ABB7B7;}
	.st9{fill:#90C695;}
</style>
<g id="Background">
	<g>
		<rect class="st0" width="4096" height="2048"/>
	</g>
	<polygon class="st1" points="2048,407 2220,307 2424,407 2588,357 2700,499 2580,543 2374,591 2100,555 	"/>
	<line class="st0" x1="2913" y1="477" x2="3057" y2="393"/>
	<polygon class="st1" points="2866.4,569 2990.4,636 2819.5,765 2618.5,713.1 2595,620.9 2648.6,585.8 	"/>
	<polygon class="st1" points="873,413 1077,301 1317,357 1497,335 1529,413 1389,477 1201,435 1089,531 921,497 	"/>
	<polygon class="st1" points="3733,281 3897,193 3989,237 3953,329 3837,329 	"/>
	<polygon class="st1" points="93.1,367.5 242,380.6 291.1,496 187.8,530.2 54.6,529.7 15.7,428.1 	"/>
</g>
<g id="mid1" class="st2">
	<polygon class="st3" points="0,884 198,686 833,1321 1547,607 2245,1305 2493,1057 3077,1641 3459,1259 3583,1383 4096,884 
		4096,2048 0,2048 	"/>
</g>
<g id="mid2" class="st2">
	<polygon class="st4" points="0,1024 678,346 1495,1163 1944.5,713.5 2501.5,1270.5 2968,804 3349,1185 3805,729 4098,1022 
		4096,2048 0,2048 	"/>
	<path class="st4" d="M1589,1173"/>
</g>
<g id="stage" class="st2">
	<polygon class="st5" points="0,1392 2277,1373.3 4098,1173 4096,2048 0,2048 	"/>
	<line class="st5" x1="0" y1="1392" x2="2277" y2="1373"/>
</g>
<g id="レイヤー_5" class="st2">
	<g class="st6">
		<polygon class="st7" points="1028,1383 1068,1320 1093,1324 1134,1269 1172,1336 1191,1383 		"/>
		<polygon class="st8" points="1065.1,1326 1047,1383 1072,1382.5 		"/>
		<polygon class="st8" points="1134,1269 1150,1326 1163,1383 1134,1383 1139,1328 		"/>
	</g>
	<g class="st6">
		<polygon class="st7" points="1615,1387 1655,1324 1680,1328 1721,1273 1759,1340 1778,1387 		"/>
		<polygon class="st8" points="1652.1,1330 1634,1387 1659,1386.5 		"/>
		<polygon class="st8" points="1721,1273 1737,1330 1750,1387 1721,1387 1726,1332 		"/>
	</g>
	<g class="st6">
		<g>
			<path class="st9" d="M386.1,1415.1c0,0-7.1-55.6-30.8-77C331.5,1316.6,397.7,1337.2,386.1,1415.1z"/>
			<path class="st9" d="M387,1415c0,0-6-57,25-77C399,1377,387,1415,387,1415z"/>
		</g>
		<g>
			<path class="st9" d="M432.1,1415.1c0,0-7.1-55.6-30.8-77C377.5,1316.6,443.7,1337.2,432.1,1415.1z"/>
			<path class="st9" d="M433,1415c0,0-6-57,25-77C445,1377,433,1415,433,1415z"/>
		</g>
		<g>
			<path class="st9" d="M417.1,1415.1c0,0-7.1-55.6-30.8-77C362.5,1316.6,428.7,1337.2,417.1,1415.1z"/>
			<path class="st9" d="M418,1415c0,0-6-57,25-77C430,1377,418,1415,418,1415z"/>
		</g>
		<g>
			<path class="st9" d="M401.1,1413.1c0,0-7.1-55.6-30.8-77C346.5,1314.6,412.7,1335.2,401.1,1413.1z"/>
			<path class="st9" d="M402,1413c0,0-6-57,25-77C414,1375,402,1413,402,1413z"/>
		</g>
		<g>
			<path class="st9" d="M423,1332c0,0,17,29.6,20,71S446,1335,423,1332z"/>
			<path class="st9" d="M444,1403c0,0-10-66.5,9-71C444,1403,444,1403,444,1403z"/>
		</g>
		<g>
			<path class="st9" d="M453,1409.1c0,0,7.1-55.6,30.8-77C507.6,1310.6,441.4,1331.2,453,1409.1z"/>
			<path class="st9" d="M452.1,1409c0,0,6-57-25-77C440.1,1371,452.1,1409,452.1,1409z"/>
		</g>
		<g>
			<path class="st9" d="M445,1334c0,0,17,29.6,20,71S468,1337,445,1334z"/>
			<path class="st9" d="M466,1405c0,0-10-66.5,9-71C466,1405,466,1405,466,1405z"/>
		</g>
		<g>
			<path class="st9" d="M476.1,1412.1c0,0-7.1-55.6-30.8-77C421.5,1313.6,487.7,1334.2,476.1,1412.1z"/>
			<path class="st9" d="M477,1412c0,0-6-57,25-77C489,1374,477,1412,477,1412z"/>
		</g>
		<g>
			<path class="st9" d="M522.1,1412.1c0,0-7.1-55.6-30.8-77C467.5,1313.6,533.7,1334.2,522.1,1412.1z"/>
			<path class="st9" d="M523,1412c0,0-6-57,25-77C535,1374,523,1412,523,1412z"/>
		</g>
		<g>
			<path class="st9" d="M507.1,1412.1c0,0-7.1-55.6-30.8-77C452.5,1313.6,518.7,1334.2,507.1,1412.1z"/>
			<path class="st9" d="M508,1412c0,0-6-57,25-77C520,1374,508,1412,508,1412z"/>
		</g>
		<g>
			<path class="st9" d="M491.1,1410.1c0,0-7.1-55.6-30.8-77C436.5,1311.6,502.7,1332.2,491.1,1410.1z"/>
			<path class="st9" d="M492,1410c0,0-6-57,25-77C504,1372,492,1410,492,1410z"/>
		</g>
		<g>
			<path class="st9" d="M513,1329c0,0,17,29.6,20,71S536,1332,513,1329z"/>
			<path class="st9" d="M534,1400c0,0-10-66.5,9-71C534,1400,534,1400,534,1400z"/>
		</g>
		<g>
			<path class="st9" d="M543,1406.1c0,0,7.1-55.6,30.8-77C597.6,1307.6,531.4,1328.2,543,1406.1z"/>
			<path class="st9" d="M542.1,1406c0,0,6-57-25-77C530.1,1368,542.1,1406,542.1,1406z"/>
		</g>
		<g>
			<path class="st9" d="M535,1331c0,0,17,29.6,20,71S558,1334,535,1331z"/>
			<path class="st9" d="M556,1402c0,0-10-66.5,9-71C556,1402,556,1402,556,1402z"/>
		</g>
	</g>
	<g class="st6">
		<g>
			<path class="st9" d="M676.1,1403.1c0,0-7.1-55.6-30.8-77C621.5,1304.6,687.7,1325.2,676.1,1403.1z"/>
			<path class="st9" d="M677,1403c0,0-6-57,25-77C689,1365,677,1403,677,1403z"/>
		</g>
		<g>
			<path class="st9" d="M722.1,1403.1c0,0-7.1-55.6-30.8-77C667.5,1304.6,733.7,1325.2,722.1,1403.1z"/>
			<path class="st9" d="M723,1403c0,0-6-57,25-77C735,1365,723,1403,723,1403z"/>
		</g>
		<g>
			<path class="st9" d="M707.1,1403.1c0,0-7.1-55.6-30.8-77C652.5,1304.6,718.7,1325.2,707.1,1403.1z"/>
			<path class="st9" d="M708,1403c0,0-6-57,25-77C720,1365,708,1403,708,1403z"/>
		</g>
		<g>
			<path class="st9" d="M691.1,1401.1c0,0-7.1-55.6-30.8-77C636.5,1302.6,702.7,1323.2,691.1,1401.1z"/>
			<path class="st9" d="M692,1401c0,0-6-57,25-77C704,1363,692,1401,692,1401z"/>
		</g>
		<g>
			<path class="st9" d="M713,1320c0,0,17,29.6,20,71S736,1323,713,1320z"/>
			<path class="st9" d="M734,1391c0,0-10-66.5,9-71C734,1391,734,1391,734,1391z"/>
		</g>
		<g>
			<path class="st9" d="M743,1397.1c0,0,7.1-55.6,30.8-77C797.6,1298.6,731.4,1319.2,743,1397.1z"/>
			<path class="st9" d="M742.1,1397c0,0,6-57-25-77C730.1,1359,742.1,1397,742.1,1397z"/>
		</g>
		<g>
			<path class="st9" d="M735,1322c0,0,17,29.6,20,71S758,1325,735,1322z"/>
			<path class="st9" d="M756,1393c0,0-10-66.5,9-71C756,1393,756,1393,756,1393z"/>
		</g>
		<g>
			<path class="st9" d="M766.1,1400.1c0,0-7.1-55.6-30.8-77C711.5,1301.6,777.7,1322.2,766.1,1400.1z"/>
			<path class="st9" d="M767,1400c0,0-6-57,25-77C779,1362,767,1400,767,1400z"/>
		</g>
		<g>
			<path class="st9" d="M812.1,1400.1c0,0-7.1-55.6-30.8-77C757.5,1301.6,823.7,1322.2,812.1,1400.1z"/>
			<path class="st9" d="M813,1400c0,0-6-57,25-77C825,1362,813,1400,813,1400z"/>
		</g>
		<g>
			<path class="st9" d="M797.1,1400.1c0,0-7.1-55.6-30.8-77C742.5,1301.6,808.7,1322.2,797.1,1400.1z"/>
			<path class="st9" d="M798,1400c0,0-6-57,25-77C810,1362,798,1400,798,1400z"/>
		</g>
		<g>
			<path class="st9" d="M781.1,1398.1c0,0-7.1-55.6-30.8-77C726.5,1299.6,792.7,1320.2,781.1,1398.1z"/>
			<path class="st9" d="M782,1398c0,0-6-57,25-77C794,1360,782,1398,782,1398z"/>
		</g>
		<g>
			<path class="st9" d="M803,1317c0,0,17,29.6,20,71S826,1320,803,1317z"/>
			<path class="st9" d="M824,1388c0,0-10-66.5,9-71C824,1388,824,1388,824,1388z"/>
		</g>
		<g>
			<path class="st9" d="M833,1394.1c0,0,7.1-55.6,30.8-77C887.6,1295.6,821.4,1316.2,833,1394.1z"/>
			<path class="st9" d="M832.1,1394c0,0,6-57-25-77C820.1,1356,832.1,1394,832.1,1394z"/>
		</g>
		<g>
			<path class="st9" d="M825,1319c0,0,17,29.6,20,71S848,1322,825,1319z"/>
			<path class="st9" d="M846,1390c0,0-10-66.5,9-71C846,1390,846,1390,846,1390z"/>
		</g>
	</g>
	<g class="st6">
		<g>
			<path class="st9" d="M3165,1302.1c0,0-14.4-54.2-40.8-72.3S3166.2,1223.3,3165,1302.1z"/>
			<path class="st9" d="M3165.9,1301.8c0,0-13.5-55.7,14.6-79.6C3172.8,1262.6,3165.9,1301.8,3165.9,1301.8z"/>
		</g>
		<g>
			<path class="st9" d="M3210.6,1296c0,0-14.4-54.2-40.8-72.3C3143.5,1205.6,3211.8,1217.2,3210.6,1296z"/>
			<path class="st9" d="M3211.5,1295.8c0,0-13.5-55.7,14.6-79.6C3218.4,1256.5,3211.5,1295.8,3211.5,1295.8z"/>
		</g>
		<g>
			<path class="st9" d="M3195.7,1298c0,0-14.4-54.2-40.8-72.3C3128.6,1207.6,3196.9,1219.2,3195.7,1298z"/>
			<path class="st9" d="M3196.6,1297.7c0,0-13.5-55.7,14.6-79.6C3203.5,1258.5,3196.6,1297.7,3196.6,1297.7z"/>
		</g>
		<g>
			<path class="st9" d="M3179.6,1298.1c0,0-14.4-54.2-40.8-72.3S3180.8,1219.3,3179.6,1298.1z"/>
			<path class="st9" d="M3180.5,1297.9c0,0-13.5-55.7,14.6-79.6C3187.4,1258.6,3180.5,1297.9,3180.5,1297.9z"/>
		</g>
		<g>
			<path class="st9" d="M3190.6,1214.8c0,0,20.8,27.1,29.2,67.7C3228.3,1323.2,3213.8,1214.7,3190.6,1214.8z"/>
			<path class="st9" d="M3220.8,1282.4c0,0-18.7-64.6-0.5-71.5C3220.8,1282.4,3220.8,1282.4,3220.8,1282.4z"/>
		</g>
		<g>
			<path class="st9" d="M3230.5,1287.3c0,0-0.4-56,20.4-80.4C3271.6,1182.4,3208.7,1211.6,3230.5,1287.3z"/>
			<path class="st9" d="M3229.6,1287.3c0,0-1.6-57.3-35-73C3212.7,1251.2,3229.6,1287.3,3229.6,1287.3z"/>
		</g>
		<g>
			<path class="st9" d="M3212.7,1213.9c0,0,20.8,27.1,29.2,67.7C3250.3,1322.2,3235.9,1213.8,3212.7,1213.9z"/>
			<path class="st9" d="M3242.9,1281.5c0,0-18.7-64.6-0.5-71.5C3242.9,1281.5,3242.9,1281.5,3242.9,1281.5z"/>
		</g>
		<g>
			<path class="st9" d="M3253.8,1287.2c0,0-14.4-54.2-40.8-72.3S3255,1208.4,3253.8,1287.2z"/>
			<path class="st9" d="M3254.7,1287c0,0-13.5-55.7,14.6-79.6C3261.6,1247.7,3254.7,1287,3254.7,1287z"/>
		</g>
		<g>
			<path class="st9" d="M3299.4,1281.1c0,0-14.4-54.2-40.8-72.3S3300.6,1202.3,3299.4,1281.1z"/>
			<path class="st9" d="M3300.3,1280.9c0,0-13.5-55.7,14.6-79.6C3307.2,1241.6,3300.3,1280.9,3300.3,1280.9z"/>
		</g>
		<g>
			<path class="st9" d="M3284.6,1283.1c0,0-14.4-54.2-40.8-72.3S3285.7,1204.3,3284.6,1283.1z"/>
			<path class="st9" d="M3285.4,1282.9c0,0-13.5-55.7,14.6-79.6C3292.3,1243.6,3285.4,1282.9,3285.4,1282.9z"/>
		</g>
		<g>
			<path class="st9" d="M3268.4,1283.2c0,0-14.4-54.2-40.8-72.3C3201.3,1192.8,3269.6,1204.5,3268.4,1283.2z"/>
			<path class="st9" d="M3269.3,1283c0,0-13.5-55.7,14.6-79.6C3276.2,1243.7,3269.3,1283,3269.3,1283z"/>
		</g>
		<g>
			<path class="st9" d="M3279.4,1199.9c0,0,20.8,27.1,29.2,67.7S3302.6,1199.8,3279.4,1199.9z"/>
			<path class="st9" d="M3309.6,1267.5c0,0-18.7-64.6-0.5-71.5C3309.6,1267.5,3309.6,1267.5,3309.6,1267.5z"/>
		</g>
		<g>
			<path class="st9" d="M3319.3,1272.4c0,0-0.4-56,20.4-80.4C3360.4,1167.5,3297.5,1196.7,3319.3,1272.4z"/>
			<path class="st9" d="M3318.4,1272.4c0,0-1.6-57.3-35-73C3301.5,1236.3,3318.4,1272.4,3318.4,1272.4z"/>
		</g>
		<g>
			<path class="st9" d="M3301.5,1199c0,0,20.8,27.1,29.2,67.7S3324.7,1198.9,3301.5,1199z"/>
			<path class="st9" d="M3331.7,1266.6c0,0-18.7-64.6-0.5-71.5C3331.7,1266.6,3331.7,1266.6,3331.7,1266.6z"/>
		</g>
	</g>
</g>
</svg>
